<svg xmlns="http://www.w3.org/2000/svg" width="32" height="32" viewBox="0 0 100 100" role="img" aria-labelledby="title">
  <title id="title">Brains favicon</title>
  <rect width="100" height="100" rx="22" fill="#0B0F19"/>
  <g fill="none" stroke="#10B981" stroke-linecap="round" stroke-linejoin="round">
    <path d="M46 44 Q34 32 20 28" stroke-width="3"/><path d="M28 34 Q22 22 16 18" stroke-width="2"/>
    <path d="M54 44 Q68 32 80 26" stroke-width="3"/><path d="M68 32 Q78 20 84 18" stroke-width="2"/>
    <path d="M44 50 Q28 54 18 64" stroke-width="2.5"/><path d="M52 56 Q56 70 72 80" stroke-width="3.5"/>
    <path d="M64 74 Q74 86 82 84" stroke-width="2"/>
  </g>
  <g fill="#10B981">
    <circle cx="20" cy="28" r="3.5"/><circle cx="16" cy="18" r="2.5"/><circle cx="80" cy="26" r="3.5"/>
    <circle cx="84" cy="18" r="2.5"/><circle cx="18" cy="64" r="3"/><circle cx="72" cy="80" r="3.5"/>
    <circle cx="82" cy="84" r="2.5"/><circle cx="50" cy="50" r="11"/>
  </g>
  <circle cx="50" cy="50" r="4.5" fill="#FFFFFF"/>
</svg>
